# xmcd CD database file
#
# Track frame offsets:
#	150
#	18702
#	36582
#	54934
#	73061
#	87588
#	103832
#	123489
#	139279
#	155590
#	171439
#	187411
#	204763
#	223315
#	235574
#	262226
#	276138
#	288930
#	304482
#	317814
#
# Disc length: 4434 seconds
#
# Revision: 0
# Processed by: cddbd v1.5.1PL0 Copyright (c) Steve Scherf et al.
# Submitted via: CDex 1.51
#
DISCID=48115014
DTITLE=Various Artist - 101 Deutsche Schlager
DYEAR=1900
DGENRE=Deutsche Schlager
TTITLE0=Udo Jürgens - Griechischer Wein
TTITLE1=Demis Roussos - Goodbye My Love Goodbye
TTITLE2=Vicky Leandros - Ich hab' die Liebe gesehen
TTITLE3=Roy Black - Sand in deinen Augen
TTITLE4=Daliah Lavi - Liebeslied jener Sommernacht
TTITLE5=Howard Carpendale - Hello Again
TTITLE6=Peter Cornelius - Du entschuldige i kenn di
TTITLE7=Andy Borg - Adios Amor
TTITLE8=Roland Kaiser - Manchmal möchte ich schon mit dir
TTITLE9=Vicky Leandros - Dann kamst du
TTITLE10=Katja Ebstein - Wunder gibt es immer wieder
TTITLE11=Nino de Angelo - Jenseits vo Eden
TTITLE12=Howard Carpendale - Ti Amo
TTITLE13=Flippers - Weine nicht kleine Eva
TTITLE14=Christian Anders - Geh nicht vorbei
TTITLE15=Roland W. - Moja
TTITLE16=Freddy Breck - Rote Rosen
TTITLE17=Vicky Leandros - Die Bouzouki klang durch die Sommernacht
TTITLE18=Roy Black - Ich denk an dich
TTITLE19=Bata Illic - Mit verbundenen Augen
EXTD=
EXTT0=
EXTT1=
EXTT2=
EXTT3=
EXTT4=
EXTT5=
EXTT6=
EXTT7=
EXTT8=
EXTT9=
EXTT10=
EXTT11=
EXTT12=
EXTT13=
EXTT14=
EXTT15=
EXTT16=
EXTT17=
EXTT18=
EXTT19=
PLAYORDER=
